<mxfile host="app.diagrams.net" agent="Mozilla/5.0 (Macintosh; Intel Mac OS X 10_15_7) AppleWebKit/605.1.15 (KHTML, like Gecko) Version/17.5 Safari/605.1.15" version="26.0.2">
  <diagram id="prtHgNgQTEPvFCAcTncT" name="Page-1">
    <mxGraphModel dx="2315" dy="1378" grid="1" gridSize="10" guides="1" tooltips="1" connect="1" arrows="1" fold="1" page="1" pageScale="1" pageWidth="827" pageHeight="1169" math="0" shadow="0">
      <root>
        <mxCell id="0" />
        <mxCell id="1" parent="0" />
        <mxCell id="ijTR_1PGKH4vccOiNguG-1" value="System" style="swimlane;whiteSpace=wrap;html=1;" vertex="1" parent="1">
          <mxGeometry x="210" y="220" width="200" height="2120" as="geometry" />
        </mxCell>
        <mxCell id="ijTR_1PGKH4vccOiNguG-34" style="edgeStyle=orthogonalEdgeStyle;rounded=0;orthogonalLoop=1;jettySize=auto;html=1;exitX=0.5;exitY=1;exitDx=0;exitDy=0;entryX=0.5;entryY=0;entryDx=0;entryDy=0;" edge="1" parent="ijTR_1PGKH4vccOiNguG-1" source="ijTR_1PGKH4vccOiNguG-28" target="ijTR_1PGKH4vccOiNguG-32">
          <mxGeometry relative="1" as="geometry" />
        </mxCell>
        <mxCell id="ijTR_1PGKH4vccOiNguG-28" value="Process Credit Card or Virtual Account&lt;div&gt;Payment&lt;/div&gt;" style="rounded=1;whiteSpace=wrap;html=1;" vertex="1" parent="ijTR_1PGKH4vccOiNguG-1">
          <mxGeometry x="40" y="570" width="120" height="60" as="geometry" />
        </mxCell>
        <mxCell id="ijTR_1PGKH4vccOiNguG-55" style="edgeStyle=orthogonalEdgeStyle;rounded=0;orthogonalLoop=1;jettySize=auto;html=1;exitX=0.5;exitY=1;exitDx=0;exitDy=0;entryX=0.5;entryY=0;entryDx=0;entryDy=0;" edge="1" parent="ijTR_1PGKH4vccOiNguG-1" source="ijTR_1PGKH4vccOiNguG-33" target="ijTR_1PGKH4vccOiNguG-40">
          <mxGeometry relative="1" as="geometry" />
        </mxCell>
        <mxCell id="ijTR_1PGKH4vccOiNguG-33" value="Request Pickup/Delivery" style="rounded=1;whiteSpace=wrap;html=1;" vertex="1" parent="ijTR_1PGKH4vccOiNguG-1">
          <mxGeometry x="40" y="780" width="120" height="60" as="geometry" />
        </mxCell>
        <mxCell id="ijTR_1PGKH4vccOiNguG-35" style="edgeStyle=orthogonalEdgeStyle;rounded=0;orthogonalLoop=1;jettySize=auto;html=1;exitX=0.5;exitY=1;exitDx=0;exitDy=0;" edge="1" parent="ijTR_1PGKH4vccOiNguG-1" source="ijTR_1PGKH4vccOiNguG-32" target="ijTR_1PGKH4vccOiNguG-33">
          <mxGeometry relative="1" as="geometry" />
        </mxCell>
        <mxCell id="ijTR_1PGKH4vccOiNguG-32" value="Confirm Payment" style="rounded=1;whiteSpace=wrap;html=1;" vertex="1" parent="ijTR_1PGKH4vccOiNguG-1">
          <mxGeometry x="40" y="670" width="120" height="60" as="geometry" />
        </mxCell>
        <mxCell id="ijTR_1PGKH4vccOiNguG-40" value="Update Battery&lt;div&gt;Status (Rented)&lt;/div&gt;" style="rounded=1;whiteSpace=wrap;html=1;" vertex="1" parent="ijTR_1PGKH4vccOiNguG-1">
          <mxGeometry x="40" y="880" width="120" height="60" as="geometry" />
        </mxCell>
        <mxCell id="ijTR_1PGKH4vccOiNguG-77" value="" style="line;strokeWidth=4;html=1;perimeter=backbonePerimeter;points=[];outlineConnect=0;rotation=90;" vertex="1" parent="ijTR_1PGKH4vccOiNguG-1">
          <mxGeometry x="150" y="1040" width="70" height="10" as="geometry" />
        </mxCell>
        <mxCell id="ijTR_1PGKH4vccOiNguG-78" value="" style="endArrow=classic;html=1;rounded=0;" edge="1" parent="ijTR_1PGKH4vccOiNguG-1" source="ijTR_1PGKH4vccOiNguG-77">
          <mxGeometry width="50" height="50" relative="1" as="geometry">
            <mxPoint x="120" y="980" as="sourcePoint" />
            <mxPoint x="130" y="1010" as="targetPoint" />
          </mxGeometry>
        </mxCell>
        <mxCell id="ijTR_1PGKH4vccOiNguG-79" value="" style="endArrow=classic;html=1;rounded=0;exitX=0.9;exitY=0.6;exitDx=0;exitDy=0;exitPerimeter=0;" edge="1" parent="ijTR_1PGKH4vccOiNguG-1" source="ijTR_1PGKH4vccOiNguG-77">
          <mxGeometry width="50" height="50" relative="1" as="geometry">
            <mxPoint x="80" y="1060" as="sourcePoint" />
            <mxPoint x="130" y="1073" as="targetPoint" />
          </mxGeometry>
        </mxCell>
        <mxCell id="ijTR_1PGKH4vccOiNguG-80" value="Assign Logistic Staff" style="rounded=1;whiteSpace=wrap;html=1;" vertex="1" parent="ijTR_1PGKH4vccOiNguG-1">
          <mxGeometry x="10" y="980" width="120" height="60" as="geometry" />
        </mxCell>
        <mxCell id="ijTR_1PGKH4vccOiNguG-83" style="edgeStyle=orthogonalEdgeStyle;rounded=0;orthogonalLoop=1;jettySize=auto;html=1;exitX=0.75;exitY=1;exitDx=0;exitDy=0;entryX=0.5;entryY=0;entryDx=0;entryDy=0;" edge="1" parent="ijTR_1PGKH4vccOiNguG-1" source="ijTR_1PGKH4vccOiNguG-81" target="ijTR_1PGKH4vccOiNguG-82">
          <mxGeometry relative="1" as="geometry" />
        </mxCell>
        <mxCell id="ijTR_1PGKH4vccOiNguG-81" value="Update Baterry Status" style="rounded=1;whiteSpace=wrap;html=1;" vertex="1" parent="ijTR_1PGKH4vccOiNguG-1">
          <mxGeometry x="10" y="1050" width="120" height="60" as="geometry" />
        </mxCell>
        <mxCell id="ijTR_1PGKH4vccOiNguG-82" value="Track Status" style="rounded=1;whiteSpace=wrap;html=1;" vertex="1" parent="ijTR_1PGKH4vccOiNguG-1">
          <mxGeometry x="40" y="1150" width="120" height="60" as="geometry" />
        </mxCell>
        <mxCell id="ijTR_1PGKH4vccOiNguG-88" value="" style="line;strokeWidth=4;html=1;perimeter=backbonePerimeter;points=[];outlineConnect=0;rotation=90;" vertex="1" parent="ijTR_1PGKH4vccOiNguG-1">
          <mxGeometry x="150" y="1340" width="70" height="10" as="geometry" />
        </mxCell>
        <mxCell id="ijTR_1PGKH4vccOiNguG-92" value="" style="endArrow=classic;html=1;rounded=0;exitX=0.9;exitY=0.6;exitDx=0;exitDy=0;exitPerimeter=0;" edge="1" parent="ijTR_1PGKH4vccOiNguG-1">
          <mxGeometry width="50" height="50" relative="1" as="geometry">
            <mxPoint x="183" y="1340" as="sourcePoint" />
            <mxPoint x="130" y="1340" as="targetPoint" />
            <Array as="points">
              <mxPoint x="170" y="1340" />
            </Array>
          </mxGeometry>
        </mxCell>
        <mxCell id="ijTR_1PGKH4vccOiNguG-100" style="edgeStyle=orthogonalEdgeStyle;rounded=0;orthogonalLoop=1;jettySize=auto;html=1;exitX=0.75;exitY=1;exitDx=0;exitDy=0;entryX=0.5;entryY=0;entryDx=0;entryDy=0;" edge="1" parent="ijTR_1PGKH4vccOiNguG-1" source="ijTR_1PGKH4vccOiNguG-95" target="ijTR_1PGKH4vccOiNguG-99">
          <mxGeometry relative="1" as="geometry" />
        </mxCell>
        <mxCell id="ijTR_1PGKH4vccOiNguG-95" value="Synchronize Parallel Tasks" style="rounded=1;whiteSpace=wrap;html=1;" vertex="1" parent="ijTR_1PGKH4vccOiNguG-1">
          <mxGeometry x="10" y="1310" width="120" height="60" as="geometry" />
        </mxCell>
        <mxCell id="ijTR_1PGKH4vccOiNguG-102" style="edgeStyle=orthogonalEdgeStyle;rounded=0;orthogonalLoop=1;jettySize=auto;html=1;exitX=0.5;exitY=1;exitDx=0;exitDy=0;" edge="1" parent="ijTR_1PGKH4vccOiNguG-1" source="ijTR_1PGKH4vccOiNguG-99" target="ijTR_1PGKH4vccOiNguG-101">
          <mxGeometry relative="1" as="geometry" />
        </mxCell>
        <mxCell id="ijTR_1PGKH4vccOiNguG-99" value="Final Confirmation" style="rounded=1;whiteSpace=wrap;html=1;" vertex="1" parent="ijTR_1PGKH4vccOiNguG-1">
          <mxGeometry x="40" y="1440" width="120" height="60" as="geometry" />
        </mxCell>
        <mxCell id="ijTR_1PGKH4vccOiNguG-101" value="End" style="ellipse;whiteSpace=wrap;html=1;aspect=fixed;" vertex="1" parent="ijTR_1PGKH4vccOiNguG-1">
          <mxGeometry x="80" y="1580" width="40" height="40" as="geometry" />
        </mxCell>
        <mxCell id="ijTR_1PGKH4vccOiNguG-2" value="User" style="swimlane;whiteSpace=wrap;html=1;" vertex="1" parent="1">
          <mxGeometry x="10" y="220" width="200" height="2120" as="geometry" />
        </mxCell>
        <mxCell id="ijTR_1PGKH4vccOiNguG-5" value="Select Battery and Rental Duration" style="rounded=1;whiteSpace=wrap;html=1;" vertex="1" parent="ijTR_1PGKH4vccOiNguG-2">
          <mxGeometry x="40" y="120" width="120" height="60" as="geometry" />
        </mxCell>
        <mxCell id="ijTR_1PGKH4vccOiNguG-6" value="" style="ellipse;whiteSpace=wrap;html=1;aspect=fixed;" vertex="1" parent="ijTR_1PGKH4vccOiNguG-2">
          <mxGeometry x="80" y="50" width="40" height="40" as="geometry" />
        </mxCell>
        <mxCell id="ijTR_1PGKH4vccOiNguG-8" value="Choose Payment Method" style="rounded=1;whiteSpace=wrap;html=1;" vertex="1" parent="ijTR_1PGKH4vccOiNguG-2">
          <mxGeometry x="40" y="210" width="120" height="60" as="geometry" />
        </mxCell>
        <mxCell id="ijTR_1PGKH4vccOiNguG-12" value="Payment method choosen?" style="rhombus;whiteSpace=wrap;html=1;" vertex="1" parent="ijTR_1PGKH4vccOiNguG-2">
          <mxGeometry x="55" y="310" width="90" height="80" as="geometry" />
        </mxCell>
        <mxCell id="ijTR_1PGKH4vccOiNguG-10" value="Credit Card or&lt;div&gt;&amp;nbsp;Virtual Account&lt;/div&gt;" style="rounded=1;whiteSpace=wrap;html=1;" vertex="1" parent="ijTR_1PGKH4vccOiNguG-2">
          <mxGeometry x="40" y="450" width="120" height="60" as="geometry" />
        </mxCell>
        <mxCell id="ijTR_1PGKH4vccOiNguG-18" value="" style="endArrow=classic;html=1;rounded=0;" edge="1" parent="ijTR_1PGKH4vccOiNguG-2">
          <mxGeometry width="50" height="50" relative="1" as="geometry">
            <mxPoint x="99.5" y="390" as="sourcePoint" />
            <mxPoint x="99.5" y="450" as="targetPoint" />
          </mxGeometry>
        </mxCell>
        <mxCell id="ijTR_1PGKH4vccOiNguG-20" value="" style="endArrow=classic;html=1;rounded=0;exitX=0.5;exitY=1;exitDx=0;exitDy=0;" edge="1" parent="ijTR_1PGKH4vccOiNguG-2" source="ijTR_1PGKH4vccOiNguG-10">
          <mxGeometry width="50" height="50" relative="1" as="geometry">
            <mxPoint x="70" y="580" as="sourcePoint" />
            <mxPoint x="100" y="570" as="targetPoint" />
          </mxGeometry>
        </mxCell>
        <mxCell id="ijTR_1PGKH4vccOiNguG-21" value="Confirm Payment&lt;div&gt;(enter payment detail)&lt;/div&gt;" style="rounded=1;whiteSpace=wrap;html=1;" vertex="1" parent="ijTR_1PGKH4vccOiNguG-2">
          <mxGeometry x="40" y="570" width="120" height="60" as="geometry" />
        </mxCell>
        <mxCell id="ijTR_1PGKH4vccOiNguG-7" value="Start" style="text;html=1;align=center;verticalAlign=middle;whiteSpace=wrap;rounded=0;" vertex="1" parent="ijTR_1PGKH4vccOiNguG-2">
          <mxGeometry x="70" y="55" width="60" height="30" as="geometry" />
        </mxCell>
        <mxCell id="ijTR_1PGKH4vccOiNguG-22" value="" style="endArrow=classic;html=1;rounded=0;exitX=0.5;exitY=1;exitDx=0;exitDy=0;entryX=0.5;entryY=0;entryDx=0;entryDy=0;" edge="1" parent="ijTR_1PGKH4vccOiNguG-2" source="ijTR_1PGKH4vccOiNguG-7" target="ijTR_1PGKH4vccOiNguG-5">
          <mxGeometry width="50" height="50" relative="1" as="geometry">
            <mxPoint x="220" y="260" as="sourcePoint" />
            <mxPoint x="270" y="210" as="targetPoint" />
          </mxGeometry>
        </mxCell>
        <mxCell id="ijTR_1PGKH4vccOiNguG-23" value="" style="endArrow=classic;html=1;rounded=0;exitX=0.5;exitY=1;exitDx=0;exitDy=0;entryX=0.5;entryY=0;entryDx=0;entryDy=0;" edge="1" parent="ijTR_1PGKH4vccOiNguG-2" source="ijTR_1PGKH4vccOiNguG-5" target="ijTR_1PGKH4vccOiNguG-8">
          <mxGeometry width="50" height="50" relative="1" as="geometry">
            <mxPoint x="220" y="260" as="sourcePoint" />
            <mxPoint x="270" y="210" as="targetPoint" />
          </mxGeometry>
        </mxCell>
        <mxCell id="ijTR_1PGKH4vccOiNguG-24" value="" style="endArrow=classic;html=1;rounded=0;exitX=0.5;exitY=1;exitDx=0;exitDy=0;entryX=0.5;entryY=0;entryDx=0;entryDy=0;" edge="1" parent="ijTR_1PGKH4vccOiNguG-2" source="ijTR_1PGKH4vccOiNguG-8" target="ijTR_1PGKH4vccOiNguG-12">
          <mxGeometry width="50" height="50" relative="1" as="geometry">
            <mxPoint x="100" y="280" as="sourcePoint" />
            <mxPoint x="270" y="210" as="targetPoint" />
          </mxGeometry>
        </mxCell>
        <mxCell id="ijTR_1PGKH4vccOiNguG-3" value="Admin/Staff" style="swimlane;whiteSpace=wrap;html=1;" vertex="1" parent="1">
          <mxGeometry x="410" y="220" width="200" height="2120" as="geometry" />
        </mxCell>
        <mxCell id="ijTR_1PGKH4vccOiNguG-53" value="Assign Logistics Staff&lt;div&gt;(Pickup/Delivery)&lt;/div&gt;" style="rounded=1;whiteSpace=wrap;html=1;" vertex="1" parent="ijTR_1PGKH4vccOiNguG-3">
          <mxGeometry x="50" y="1015" width="120" height="60" as="geometry" />
        </mxCell>
        <mxCell id="ijTR_1PGKH4vccOiNguG-85" value="Pick Up/Deliver Battery" style="rounded=1;whiteSpace=wrap;html=1;" vertex="1" parent="ijTR_1PGKH4vccOiNguG-3">
          <mxGeometry x="50" y="1310" width="120" height="60" as="geometry" />
        </mxCell>
        <mxCell id="ijTR_1PGKH4vccOiNguG-89" value="" style="endArrow=classic;html=1;rounded=0;exitX=0.9;exitY=0.6;exitDx=0;exitDy=0;exitPerimeter=0;" edge="1" parent="ijTR_1PGKH4vccOiNguG-3" target="ijTR_1PGKH4vccOiNguG-88">
          <mxGeometry width="50" height="50" relative="1" as="geometry">
            <mxPoint x="50" y="1360" as="sourcePoint" />
            <mxPoint x="-4" y="1360" as="targetPoint" />
          </mxGeometry>
        </mxCell>
        <mxCell id="ijTR_1PGKH4vccOiNguG-90" value="" style="endArrow=classic;html=1;rounded=0;" edge="1" parent="ijTR_1PGKH4vccOiNguG-3" target="ijTR_1PGKH4vccOiNguG-88">
          <mxGeometry width="50" height="50" relative="1" as="geometry">
            <mxPoint x="50" y="1320" as="sourcePoint" />
            <mxPoint x="-4" y="1320" as="targetPoint" />
          </mxGeometry>
        </mxCell>
        <mxCell id="ijTR_1PGKH4vccOiNguG-4" value="Logistic(Delivery staff)" style="swimlane;whiteSpace=wrap;html=1;" vertex="1" parent="1">
          <mxGeometry x="610" y="220" width="200" height="2120" as="geometry" />
        </mxCell>
        <mxCell id="ijTR_1PGKH4vccOiNguG-96" value="Complate&amp;nbsp;&lt;div&gt;Pick Up/Delivery&lt;/div&gt;" style="rounded=1;whiteSpace=wrap;html=1;" vertex="1" parent="ijTR_1PGKH4vccOiNguG-4">
          <mxGeometry x="40" y="1310" width="120" height="60" as="geometry" />
        </mxCell>
        <mxCell id="ijTR_1PGKH4vccOiNguG-25" value="" style="endArrow=classic;html=1;rounded=0;exitX=1;exitY=0.5;exitDx=0;exitDy=0;entryX=0;entryY=0.5;entryDx=0;entryDy=0;" edge="1" parent="1" source="ijTR_1PGKH4vccOiNguG-21" target="ijTR_1PGKH4vccOiNguG-28">
          <mxGeometry width="50" height="50" relative="1" as="geometry">
            <mxPoint x="120" y="740" as="sourcePoint" />
            <mxPoint x="240" y="820" as="targetPoint" />
          </mxGeometry>
        </mxCell>
        <mxCell id="ijTR_1PGKH4vccOiNguG-64" style="edgeStyle=orthogonalEdgeStyle;rounded=0;orthogonalLoop=1;jettySize=auto;html=1;exitX=1;exitY=0.5;exitDx=0;exitDy=0;entryX=0.5;entryY=0;entryDx=0;entryDy=0;" edge="1" parent="1" source="ijTR_1PGKH4vccOiNguG-40" target="ijTR_1PGKH4vccOiNguG-53">
          <mxGeometry relative="1" as="geometry">
            <mxPoint x="530" y="1130" as="targetPoint" />
          </mxGeometry>
        </mxCell>
        <mxCell id="ijTR_1PGKH4vccOiNguG-72" value="" style="endArrow=classic;html=1;rounded=0;exitX=0;exitY=0.5;exitDx=0;exitDy=0;" edge="1" parent="1" source="ijTR_1PGKH4vccOiNguG-53" target="ijTR_1PGKH4vccOiNguG-77">
          <mxGeometry width="50" height="50" relative="1" as="geometry">
            <mxPoint x="330" y="1240" as="sourcePoint" />
            <mxPoint x="400" y="1220" as="targetPoint" />
          </mxGeometry>
        </mxCell>
        <mxCell id="ijTR_1PGKH4vccOiNguG-87" style="edgeStyle=orthogonalEdgeStyle;rounded=0;orthogonalLoop=1;jettySize=auto;html=1;exitX=1;exitY=0.5;exitDx=0;exitDy=0;entryX=0.5;entryY=0;entryDx=0;entryDy=0;" edge="1" parent="1" source="ijTR_1PGKH4vccOiNguG-82" target="ijTR_1PGKH4vccOiNguG-85">
          <mxGeometry relative="1" as="geometry">
            <mxPoint x="520" y="1400" as="targetPoint" />
          </mxGeometry>
        </mxCell>
        <mxCell id="ijTR_1PGKH4vccOiNguG-98" style="edgeStyle=orthogonalEdgeStyle;rounded=0;orthogonalLoop=1;jettySize=auto;html=1;exitX=1;exitY=0.5;exitDx=0;exitDy=0;entryX=0;entryY=0.5;entryDx=0;entryDy=0;" edge="1" parent="1" source="ijTR_1PGKH4vccOiNguG-85" target="ijTR_1PGKH4vccOiNguG-96">
          <mxGeometry relative="1" as="geometry" />
        </mxCell>
      </root>
    </mxGraphModel>
  </diagram>
</mxfile>
